<?xml version="1.0" standalone="no"?>
<!DOCTYPE svg PUBLIC "-//W3C//DTD SVG 20010904//EN"
 "http://www.w3.org/TR/2001/REC-SVG-20010904/DTD/svg10.dtd">
<svg version="1.0" xmlns="http://www.w3.org/2000/svg"
 width="139.000000pt" height="142.000000pt" viewBox="0 0 139.000000 142.000000"
 preserveAspectRatio="xMidYMid meet">
<metadata>
Created by potrace 1.15, written by Peter Selinger 2001-2017
</metadata>
<g transform="translate(0.000000,142.000000) scale(0.100000,-0.100000)"
fill="#000000" stroke="none">
<path d="M580 1413 c-51 -8 -157 -46 -210 -74 -159 -84 -274 -221 -335 -397
-39 -111 -46 -285 -17 -399 63 -249 229 -427 477 -510 72 -24 94 -27 220 -27
124 1 149 4 220 27 237 78 393 257 441 505 15 77 18 197 8 251 l-6 31 -339 0
-339 0 0 -125 0 -125 200 0 c229 0 220 4 174 -88 -71 -142 -221 -221 -396
-209 -196 13 -364 171 -399 374 -28 160 51 338 192 432 76 51 151 73 243 73
89 -1 154 -21 223 -68 l53 -36 47 40 c27 22 72 65 102 95 l54 55 -64 48 c-76
56 -166 99 -252 119 -57 14 -235 18 -297 8z"/>
</g>
</svg>
