<svg version="1" xmlns="http://www.w3.org/2000/svg" width="62.667" height="85.333" viewBox="0 0 47.000000 64.000000"><path d="M0 32v32h47V0H0v32zM16 5.9c1.9 1 4.4 3.4 5.5 5.4l1.9 3.6 2.1-3.6c2.3-4.2 7-6.9 13.8-7.8l4.7-.7v5.6c0 5.5 0 5.6-2.9 5.6-1.6 0-3.9.9-5.2 1.9l-2.4 2 3.7 3c5.1 4.3 7.8 10.4 7.8 17.7-.1 17.5-20.3 27.6-34.3 17.1C-.6 47.1-1 30 9.8 20.9l3.7-3-2.4-2c-1.3-1-3.6-1.9-5.2-1.9C3 14 3 13.9 3 8.4V2.8l4.8.7c2.6.3 6.3 1.4 8.2 2.4z"/><path d="M19.1 28.2c-8 4.3-8.6 14.7-1.1 19.1 6.5 3.9 13.9.6 16.2-7.2.8-2.8-1.1-7.8-3.9-10.4-2.7-2.4-8.2-3.1-11.2-1.5z"/></svg>